<svg width="364" height="263" viewBox="0 0 364 263" fill="none" xmlns="http://www.w3.org/2000/svg">
<rect x="102" width="132" height="262" fill="#5828E8"/>
<rect x="191" y="62" width="83" height="200" fill="#1B1C20"/>
<path d="M242 159C242 129.729 265.729 106 295 106V106C324.271 106 348 129.729 348 159V262H242V159Z" fill="#DACD46"/>
<path d="M217 262.5C217 248.252 214.194 234.143 208.741 220.979C203.288 207.815 195.296 195.854 185.221 185.779C175.146 175.704 163.185 167.712 150.021 162.259C136.857 156.806 122.748 154 108.5 154C94.2516 154 80.1427 156.806 66.9788 162.259C53.815 167.712 41.8541 175.704 31.7789 185.779C21.7038 195.854 13.7117 207.815 8.25907 220.979C2.80643 234.143 -1.24564e-06 248.252 0 262.5L108.5 262.5H217Z" fill="#DF7D47"/>
<circle cx="109.5" cy="213.5" r="6.5" fill="#1A1C1E"/>
<path d="M149 224.5C149 226.535 148.599 228.551 147.82 230.432C147.041 232.312 145.899 234.021 144.46 235.46C143.021 236.899 141.312 238.041 139.432 238.82C137.551 239.599 135.535 240 133.5 240C131.465 240 129.449 239.599 127.568 238.82C125.688 238.041 123.979 236.899 122.54 235.46C121.101 234.021 119.959 232.312 119.18 230.432C118.401 228.551 118 226.535 118 224.5L133.5 224.5H149Z" fill="#1A1C1E"/>
<circle cx="157.5" cy="213.5" r="6.5" fill="#1A1C1E"/>
<circle cx="173.051" cy="27.0513" r="3.94872" fill="#F1F3F4"/>
<circle cx="252.949" cy="79.9487" r="3.94872" fill="#F1F3F4"/>
<circle cx="271.949" cy="79.9487" r="3.94872" fill="#F1F3F4"/>
<circle cx="254.244" cy="80.2436" r="2.24359" fill="#1B1C20"/>
<circle cx="284.5" cy="141.5" r="3.5" fill="#1B1C20"/>
<circle cx="173.051" cy="27.0513" r="1.74359" fill="#1B1C20"/>
<circle cx="273.244" cy="80.2436" r="2.24359" fill="#1B1C20"/>
<circle cx="201.051" cy="27.0513" r="3.94872" fill="#F1F3F4"/>
<circle cx="201.051" cy="27.0513" r="1.74359" fill="#1B1C20"/>
<rect x="185" y="32" width="5" height="21" fill="#1B1C20"/>
<rect x="290" y="154" width="74" height="5" fill="#1B1C20"/>
</svg>
