<svg width="269" height="269" viewBox="0 0 269 269" fill="none" xmlns="http://www.w3.org/2000/svg">
<path d="M190 79C181 52 166 27 146 7C157 34 164 67 166 103C202 106 235 113 262 123C242 103 218 88 190 79ZM123 7C103 27 88 52 79 79C52 88 27 103 7 123C34 113 67 106 103 103C106 67 113 34 123 7ZM7 146C27 166 52 181 79 190C88 218 103 242 123 262C113 235 106 202 103 166C67 164 34 157 7 146ZM146 262C166 242 181 218 190 190C218 181 242 166 262 146C235 157 202 164 166 166C164 202 157 235 146 262Z" fill="black"/>
<path fill-rule="evenodd" clip-rule="evenodd" d="M269 135C237 121 200 114 166 111H159L158 104C156 69 149 32 135 0C121 32 114 69 111 104V111H104C69 114 32 121 0 135C32 149 69 156 104 158L111 159V166C114 200 121 237 135 269C149 237 156 200 158 166L159 159L166 158C200 156 237 149 269 135Z" fill="black"/>
</svg>
